<svg xmlns="http://www.w3.org/2000/svg" viewBox="0 0 128 128" role="img" aria-label="Recycle Bin icon">
  <path d="M36 38h56l-6 70a10 10 0 0 1-10 9H52a10 10 0 0 1-10-9z" fill="#dbeafe" stroke="#5b7cfa" stroke-width="5"/>
  <path d="M47 38v-9a8 8 0 0 1 8-8h18a8 8 0 0 1 8 8v9" fill="none" stroke="#3653d9" stroke-width="6"/>
  <path d="M30 38h68" stroke="#3653d9" stroke-width="8" stroke-linecap="round"/>
  <path d="M52 55v43m24-43v43" stroke="#5b7cfa" stroke-width="5" stroke-linecap="round"/>
  <path d="m55 77 9-12 9 12m0 16-9 12-9-12" fill="none" stroke="#16a34a" stroke-width="5" stroke-linecap="round" stroke-linejoin="round"/>
</svg>
